<svg xmlns="http://www.w3.org/2000/svg" viewBox="0 0 1548 306"><title>Logo_2ColorWhite</title><g id="Logo_2ColorWhite"><path d="M460.25,44.26H400.84V262.6h32.58v-76h26.83c18.81,0,26.83,5.13,26.83,15.81v60.2h32.59V202.4c0-18.45-8.75-27.41-15.75-31.17,7-3.85,15.75-10.31,15.75-28.75V90.41C519.67,69.36,509.36,44.26,460.25,44.26Zm26.83,98.22c0,10.67-8,13.18-26.83,13.18H433.42V75.19h26.83c18.81,0,26.83,4.54,26.83,15.22Z" style="fill:#fff"/><path d="M614.84,41C575,41,552.11,59,552.11,90.41V262.6h32.58v-76H645v76h32.58V90.41C677.57,59,654.7,41,614.84,41ZM645,155.65h-60.3V90.41c0-13,9-18.54,30.15-18.54S645,77.41,645,90.41Z" style="fill:#fff"/><polygon points="710.12 75.19 723.39 75.19 723.39 231.67 710.12 231.67 710.12 262.6 769.24 262.6 769.24 231.67 755.97 231.67 755.97 75.19 769.24 75.19 769.24 44.26 710.12 44.26 710.12 75.19" style="fill:#fff"/><path d="M864.91,44.26H802.18V262.6h62.73c39.87,0,62.74-18,62.74-49.46V93.72C927.65,62.3,904.78,44.26,864.91,44.26Zm30.14,168.88c0,13-9,18.53-30.14,18.53H834.77V75.19h30.14c21.14,0,30.14,5.54,30.14,18.53Z" style="fill:#fff"/><path d="M960.77,93.72V213.14c0,31.42,22.87,49.46,62.74,49.46H1073V231.67h-49.45c-21.14,0-30.16-5.54-30.16-18.53V172.49h73V141.56h-73V93.72c0-13,9-18.53,30.16-18.53H1073V44.26h-49.45C983.64,44.26,960.77,62.3,960.77,93.72Z" style="fill:#fff"/><path d="M1165.48,44.31h-59.42V262.65h32.6V186.29h26.82c18.81,0,26.84,4.55,26.84,15.22v61.14h32.58V201.51c0-18.44-8.75-26.82-15.74-30.57,7-3.85,15.74-12.35,15.74-30.79V90.46C1224.9,69.41,1214.58,44.31,1165.48,44.31Zm26.84,95.84c0,10.67-8,15.22-26.84,15.22h-26.82V75.24h26.82c18.81,0,26.84,4.54,26.84,15.22Z" style="fill:#fff"/><rect x="1257.53" y="203.48" width="32.58" height="59.12" style="fill:#fff"/><polygon points="1323.07 75.19 1336.33 75.19 1336.33 231.67 1323.07 231.67 1323.07 262.6 1382.18 262.6 1382.18 231.67 1368.92 231.67 1368.92 75.19 1382.18 75.19 1382.18 44.26 1323.07 44.26 1323.07 75.19" style="fill:#fff"/><path d="M1478,41c-39.85,0-62.72,18-62.72,49.46V216.46c0,31.43,22.87,49.45,62.72,49.45s62.74-18,62.74-49.45v-126C1540.71,59,1517.84,41,1478,41Zm30.15,175.51c0,13-9,18.53-30.15,18.53s-30.14-5.54-30.14-18.53v-126c0-13,9-18.54,30.14-18.54s30.15,5.54,30.15,18.54Z" style="fill:#fff"/><path d="M300,119.78a9,9,0,0,0,2.23-7.43c-.21-.81-.41-1.63-.63-2.44a9,9,0,0,0-5.7-5.42l-28-8.45a13.74,13.74,0,0,1-9.39-16.28l6.67-28.47a9.21,9.21,0,0,0-1-6.83,9.46,9.46,0,0,0-3.33-3.32,9.18,9.18,0,0,0-6.82-1l-28.47,6.67a13.72,13.72,0,0,1-16.27-9.39l-8.46-28a9,9,0,0,0-5.28-5.63c-.91-.25-1.83-.46-2.74-.7a9,9,0,0,0-7.27,2.23l-21.32,20a13.72,13.72,0,0,1-18.79,0l-21.32-20a9,9,0,0,0-7.27-2.23c-.91.24-1.83.45-2.73.7a9,9,0,0,0-5.29,5.63l-8.46,28a13.71,13.71,0,0,1-16.27,9.39L55.62,40.1a9.21,9.21,0,0,0-6.83,1,9.46,9.46,0,0,0-3.33,3.32,9.21,9.21,0,0,0-1,6.83l6.67,28.48A13.73,13.73,0,0,1,41.7,96l-28,8.45A9,9,0,0,0,8,109.91c-.22.81-.42,1.63-.63,2.44a9,9,0,0,0,2.23,7.43l20,21.32a13.72,13.72,0,0,1,0,18.79l-20,21.32a9,9,0,0,0-2.23,7.55c.2.74.38,1.49.58,2.23a9,9,0,0,0,5.75,5.51l28,8.46a13.72,13.72,0,0,1,9.39,16.27L44.42,249.7a9.12,9.12,0,0,0,1.46,7.39,9.35,9.35,0,0,0,9.74,3.8l47.08-5.1a4.39,4.39,0,0,0,3.93-4.76c-1.57-17.27-9-81.84-11.73-105.94a18,18,0,0,1,5.8-15.39l46.11-42a11.87,11.87,0,0,1,16,0l46.05,42a18,18,0,0,1,5.79,15.37c-2.75,24.08-10.09,88.68-11.65,106a4.39,4.39,0,0,0,3.93,4.75l47.09,5.1a9.11,9.11,0,0,0,7.43-1.49,9.31,9.31,0,0,0,2.3-2.3,9.15,9.15,0,0,0,1.46-7.4l-6.67-28.47A13.72,13.72,0,0,1,267.93,205l28-8.46a9,9,0,0,0,5.75-5.51c.2-.74.38-1.49.58-2.24a9,9,0,0,0-2.23-7.54l-20-21.32a13.72,13.72,0,0,1,0-18.79Z" style="fill:#e5a024"/><path d="M159.38,126.56a6,6,0,0,0-9.12,0l-15.81,18.18a18.41,18.41,0,0,0-4.49,13.2l8,135.87a9.66,9.66,0,0,0,9.25,9q3.75.19,7.56.2t7.6-.2a9.64,9.64,0,0,0,9.25-9L179.73,158a18.54,18.54,0,0,0-4.51-13.22Z" style="fill:#fff"/></g></svg>